<svg xmlns="http://www.w3.org/2000/svg" viewBox="0 0 100 100" width="100" height="100">
  <!-- Petal 1 -->
  <path
    d="M50 50 C45 35, 25 25, 30 10 C35 -5, 55 5, 50 50 Z"
    fill="#194374"
    opacity="0.85"
  />
  <!-- Petal 2 -->
  <path
    d="M50 50 C65 45, 80 28, 90 35 C100 42, 90 60, 50 50 Z"
    fill="#194374"
    opacity="0.85"
  />
  <!-- Petal 3 -->
  <path
    d="M50 50 C55 65, 75 75, 70 90 C65 105, 45 95, 50 50 Z"
    fill="#194378"
    opacity="0.85"
  />
  <!-- Petal 4 -->
  <path
    d="M50 50 C35 55, 20 72, 10 65 C0 58, 10 40, 50 50 Z"
    fill="#194374"
    opacity="0.85"
  />
  <!-- Petal 5 -->
  <path
    d="M50 50 C38 38, 18 45, 15 30 C12 15, 35 8, 50 50 Z"
    fill="#194374"
    opacity="0.85"
  />
  <!-- Center -->
  <circle cx="50" cy="50" r="5" fill="#2a5fa5" opacity="0.9"/>
</svg>
